<?xml version="1.0" encoding="utf-8"?>
<!-- Generator: Adobe Illustrator 26.0.1, SVG Export Plug-In . SVG Version: 6.00 Build 0)  -->
<svg version="1.1" id="Слой_1" xmlns="http://www.w3.org/2000/svg" xmlns:xlink="http://www.w3.org/1999/xlink" x="0px" y="0px"
	 viewBox="0 0 459.5 478.2" style="enable-background:new 0 0 459.5 478.2;" xml:space="preserve">
<style type="text/css">
	.st0{fill:#18181B;}
	.st1{fill-rule:evenodd;clip-rule:evenodd;fill:#18181B;}
</style>
<g>
	<g>
		<g>
			<path class="st0" d="M156.3,348.9c0.2,1.6,0.5,2.6,0.9,3.1c0.4,0.5,1.1,0.7,1.6,0.6c0.9-0.1,1.7-0.1,2.6-0.1l-5.3,4.3
				c-1.2,0-2.5-0.4-3.4-1.1c-1-0.9-1.6-1.8-2-3.1c-0.5-1.5-0.9-3.1-0.9-4.7c-0.1-1.8-0.2-3.8-0.2-5.9v-14.7h-3.2l2-4.4h1.2
				c0.5,0,0.9-0.4,1.1-0.7c0.5-0.5,0.7-1.1,1-1.7c0-0.5,0-1,0-1.4c0-0.5,0-1.1,0-1.6c0-1.8-0.2-3.7-1.1-5.3
				c-0.6-1.2-1.5-2.2-2.7-3.1c-1.1-0.6-2.2-1-3.3-0.9c-1.2,0-2.3,0.5-3.4,1.1c-1.1,0.7-2,1.8-2.6,3.1c-0.7,1.5-1.1,3.1-1.1,4.8
				c0,1.1,0.4,2.1,1,2.8c0.6,0.7,1.4,1.5,2.2,2c0.7,0.5,1.5,1,2.2,1.2c0.6,0.4,1,0.6,1,1l-2.7,4.8c-1.5-1.1-3-2.2-4.7-3
				c-1.1-0.5-2.2-0.7-3.4-0.6c-0.9,0-1.6,0.5-2.2,1.2c-0.5,0.7-0.7,1.7-0.7,2.7c0,1.1,0.5,2.2,1.2,3.1c1,1,2,1.8,3.2,2.6
				c1.2,0.7,2.7,1.6,4.1,2.3c1.5,0.7,2.7,1.6,4.1,2.5c1.1,0.9,2.2,1.7,3.2,2.8c0.9,1,1.2,2.2,1.2,3.4c0,1.5-0.4,2.7-1.1,3.9
				s-1.7,2.5-3,3.4c-1.2,1-2.6,1.8-3.9,2.3c-1.4,0.6-2.8,0.9-4.3,0.9s-2.7-0.2-4.2-0.6c-1.2-0.4-2.3-0.9-3.6-1.4
				c-1.1-0.6-2.2-1.2-3.3-2.1l2.7-5.8c1.2,1.1,2.6,2,3.8,2.8c1.1,0.6,2.2,1.2,3.3,1.6c0.9,0.4,1.8,0.6,2.7,0.9
				c0.7,0.1,1.5,0.2,2.2,0.1c1.4,0,2.7-0.5,3.8-1.4c0.9-1.1,1.1-2,0.6-2.7c-0.6-1-1.5-1.7-2.3-2.2c-1.4-0.9-2.7-1.6-4.2-2.2
				c-1.6-0.7-3.2-1.6-4.7-2.7c-1.5-1-2.7-2.1-3.9-3.3c-1.8-2.2-2.5-5.2-1.5-7.9c0.5-1.2,1.1-2.3,1.8-3.3c0.9-1.1,1.8-2,3-2.7
				c1.1-0.7,2.2-1.2,3.4-1.5c-0.4-0.4-0.6-0.7-0.9-1.2c-0.4-0.6-0.5-1.5-0.6-2.2c-0.2-1.7,0.1-3.6,1.1-5.1c1-1.6,2.2-3,3.7-4.1
				c1.5-1.1,3.2-2.1,4.9-2.7c1.6-0.6,3.2-1,5.1-1c1.6-0.1,3.1,0.2,4.4,0.9c1.1,0.6,2,1.5,2.3,2.7c0.6,1.5,0.9,3.1,1,4.7
				c0.1,1.8,0.2,4.3,0.2,7v1.6h6.8l-2.1,4.4h-4.7v14.3C156.1,344,156.1,346.5,156.3,348.9z"/>
			<path class="st0" d="M200.8,339.7c0,2.2-0.4,4.6-1.1,6.8c-0.7,2.1-2,3.9-3.4,5.5c-1.6,1.6-3.6,2.8-5.8,3.7c-2.6,1-5.2,1.5-8,1.4
				c-2.7,0-5.4-0.4-7.9-1.4c-2.2-0.9-4.1-2.1-5.8-3.7c-1.6-1.6-2.7-3.4-3.6-5.5c-0.9-2.2-1.2-4.4-1.2-6.8c0-2.2,0.4-4.6,1.2-6.7
				c0.7-2.1,2-3.9,3.6-5.5c1.6-1.6,3.6-2.8,5.8-3.7c2.5-1,5.2-1.5,7.8-1.4c2.7,0,5.4,0.4,7.9,1.4c2.2,0.9,4.1,2.1,5.8,3.7
				c1.6,1.6,2.7,3.4,3.6,5.5C200.3,335.1,200.8,337.3,200.8,339.7z M182.4,355.5c1.8,0,3.6-0.4,5.2-1.2c1.5-0.9,2.8-2,3.8-3.3
				c1.1-1.5,1.8-3.2,2.2-5.1c0.5-2,0.7-4.1,0.7-6.2s-0.2-4.2-0.9-6.2c-0.5-1.8-1.4-3.4-2.3-5.1c-1.1-1.5-2.2-2.6-3.8-3.4
				c-1.6-0.9-3.3-1.4-5.1-1.2c-1.8,0-3.6,0.4-5.2,1.2c-1.5,0.9-2.8,2-3.8,3.4c-1.1,1.5-1.8,3.2-2.2,5.1c-0.5,2-0.7,4.1-0.7,6.2
				s0.2,4.2,0.9,6.2c0.5,1.8,1.4,3.4,2.5,5.1c1.1,1.5,2.2,2.6,3.8,3.3C178.9,355.1,180.6,355.5,182.4,355.5L182.4,355.5z"/>
			<path class="st0" d="M211.9,356.9h-6.5v-26.4c0-0.6-0.2-1.4-0.6-1.8c-0.4-0.5-1-1-1.6-1.1l8.7-4.6v4.7c1.4-1.2,2.8-2.3,4.4-3.2
				c1.5-0.7,3.1-1.2,4.8-1.5c1.5-0.2,3.1,0,4.4,0.5c1.5,0.5,2.7,1.5,3.6,2.7l-6,3.9c-0.2-0.6-0.7-1.1-1.2-1.6s-1.1-0.9-1.7-1.1
				c-0.9-0.4-1.7-0.5-2.7-0.5c-1.7,0-3.1,0.5-3.8,1.2c-0.9,1-1.5,2.1-1.7,3.3V356.9L211.9,356.9L211.9,356.9z"/>
			<path class="st0" d="M240.3,323.1v18.7c0,2.2,0,3.9,0.1,5.3c0,1.1,0.1,2.2,0.4,3.2c0.1,0.6,0.2,1.1,0.6,1.6
				c0.2,0.4,0.6,0.5,1,0.6c0.5,0,1,0,1.4,0c0.6,0,1.2-0.1,1.8-0.1l-5.3,4.3c-1.2,0-2.5-0.4-3.4-1.1c-1-0.9-1.6-1.8-2-3.1
				c-0.5-1.5-0.9-3.1-1-4.7c-0.1-1.8-0.2-3.8-0.2-5.9v-11.7c0-0.6-0.2-1.4-0.6-1.8s-1-1-1.6-1.1L240.3,323.1z"/>
			<path class="st0" d="M246.8,342.4c0-2.5,0.5-4.8,1.6-7c1.1-2.2,2.5-4.1,4.1-5.8c1.6-1.7,3.4-3.1,5.5-4.2c2-1.1,3.9-1.7,6.2-2.2
				c1.8-0.4,3.8-0.2,5.7,0.2c1.7,0.5,3.2,1.5,4.3,3l-6,3.9c-0.2-0.6-0.7-1.1-1.2-1.6s-1.1-0.9-1.7-1.1c-0.9-0.4-1.7-0.5-2.7-0.5
				c-1.2,0-2.5,0.2-3.6,0.7c-1.1,0.5-2,1.2-2.7,2.1c-0.7,1-1.5,2-1.8,3.1c-0.5,1.1-1,2.3-1.1,3.7H271l-2.8,6.3H253
				c0.4,1.8,1.4,3.4,2.7,4.8c1.4,1.4,3.1,2.3,4.9,3c2,0.6,4.1,0.6,6.2,0.2c2.3-0.5,4.6-1.6,6.4-3.2c-1.1,1.4-2.1,2.7-3.2,3.8
				c-1.1,1.1-2.1,2.1-3.2,3.1c-1.1,0.9-2.3,1.6-3.7,2c-0.7,0.2-1.5,0.2-2.2,0.2c-1.1,0-2.2-0.2-3.3-0.5c-1.2-0.4-2.6-0.9-3.7-1.5
				c-1.4-0.6-2.5-1.6-3.4-2.7c-1.1-1.2-2-2.6-2.6-4.1C247.1,346.3,246.8,344.4,246.8,342.4z"/>
			<path class="st0" d="M283.1,350c1.1,0.6,2.2,1.2,3.3,1.6c0.9,0.4,1.8,0.6,2.7,0.9c0.7,0.1,1.5,0.2,2.2,0.1c1.4,0,2.7-0.5,3.8-1.4
				c0.9-1.1,1.1-2,0.6-2.7c-0.6-1-1.5-1.7-2.5-2.2c-1.4-0.9-2.7-1.6-4.2-2.2c-1.6-0.7-3.2-1.6-4.7-2.7c-1.5-1-2.7-2.1-3.9-3.3
				c-2.1-2.2-2.6-5.4-1.4-8.3c0.5-1.4,1.4-2.6,2.2-3.6c1-1.1,2.2-2,3.4-2.7c1.2-0.6,2.6-1.1,3.9-1.1c1.1,0,2.3,0.1,3.4,0.4
				c0.9,0.1,1.6,0.5,2.3,0.7c0.6,0.2,1.2,0.6,1.7,1.1l-2.7,4.8c-1.4-1.2-3-2.2-4.6-3.1c-1.1-0.5-2.2-0.7-3.4-0.6
				c-0.9,0-1.6,0.5-2.2,1.2c-0.5,0.7-0.7,1.7-0.7,2.7c0,1.1,0.5,2.2,1.2,3.1c1,1,2,1.8,3.2,2.6c1.2,0.7,2.7,1.6,4.1,2.3
				c1.5,0.7,2.7,1.6,4.1,2.5c1.1,0.9,2.2,1.7,3.2,2.8c0.9,1,1.2,2.2,1.2,3.4c0,1.5-0.4,2.7-1.1,3.9c-0.7,1.4-1.7,2.5-3,3.4
				s-2.6,1.8-3.9,2.3c-1.4,0.6-2.8,0.9-4.3,0.9c-1.5,0-2.7-0.2-4.1-0.6c-1.2-0.4-2.3-0.9-3.4-1.4c-1.1-0.6-2.2-1.2-3.3-2.1l2.6-5.8
				C280.6,348.2,281.8,349.2,283.1,350z"/>
			<path class="st0" d="M157.2,292.4c0-2.5,0.5-4.8,1.6-7c1.1-2.2,2.3-4.1,4.1-5.8c1.6-1.6,3.4-3.1,5.5-4.2c2-1.1,3.9-1.7,6.2-2.2
				c1.8-0.4,3.8-0.2,5.7,0.2c2,0.5,3.4,1.5,4.4,3l-6,3.9c-0.2-0.6-0.7-1.1-1.2-1.6c-0.5-0.5-1.1-0.9-1.7-1.1
				c-0.9-0.4-1.7-0.5-2.7-0.5c-1.6,0-3.1,0.4-4.3,1.2c-1.2,0.9-2.2,1.8-3.1,3.2c-0.9,1.4-1.5,2.8-1.7,4.3c-0.4,1.6-0.6,3.2-0.6,4.9
				c0,2.1,0.6,4.1,1.8,5.8c1.2,1.7,3,3,4.9,3.7c2.1,0.9,4.3,1.1,6.7,0.7c2.6-0.4,5.1-1.6,7-3.3c-1.1,1.4-2.1,2.7-3.2,3.8
				c-1.1,1.1-2.1,2.1-3.2,3.1c-1.1,1-2.3,1.6-3.7,2c-0.7,0.2-1.5,0.2-2.2,0.2c-1.1,0-2.2-0.2-3.3-0.5c-1.2-0.4-2.6-0.9-3.7-1.5
				c-2.7-1.5-4.9-3.8-6-6.8C157.5,296.2,157.2,294.4,157.2,292.4z"/>
			<path class="st0" d="M187.1,292.4c0-2.5,0.5-4.8,1.6-7c1.1-2.2,2.5-4.1,4.1-5.8c1.6-1.6,3.4-3.1,5.5-4.2c1.8-1.1,3.9-1.8,6.2-2.2
				c1.8-0.4,3.8-0.2,5.8,0.2c1.7,0.5,3.2,1.5,4.3,3l3.4-1.7v32.2h-6.5v-6.4c-0.5,0.5-1.1,1.1-1.6,1.8c-0.6,0.6-1.4,1.2-2,1.8
				s-1.5,1.1-2.2,1.6s-1.5,0.9-2.2,1.1c-0.7,0.2-1.5,0.2-2.2,0.2c-1.1,0-2.2-0.2-3.3-0.5c-1.2-0.4-2.6-0.9-3.7-1.5
				c-1.2-0.7-2.5-1.6-3.4-2.7c-1.1-1.2-2-2.6-2.6-4.1C187.4,296.2,187,294.4,187.1,292.4z M193.1,291c0,1.8,0.5,3.8,1.6,5.4
				c1.1,1.6,2.6,2.8,4.3,3.7c1.8,0.9,3.8,1.4,5.9,1.2c2.2-0.1,4.6-0.7,6.5-2.1V282c0-0.5-0.1-1.1-0.4-1.5c-0.2-0.4-0.6-0.9-1.1-1.1
				l-1.5,1.1c-0.2-0.6-0.7-1.1-1.2-1.6c-0.5-0.5-1.1-0.9-1.7-1.1c-0.9-0.4-1.7-0.5-2.7-0.5c-1.6,0-3.1,0.4-4.3,1.2
				c-1.2,0.9-2.2,1.8-3.1,3.2c-0.9,1.4-1.5,2.8-1.8,4.3C193.3,287.7,193.1,289.4,193.1,291L193.1,291z"/>
			<path class="st0" d="M252.5,298.9c0.2,1.6,0.5,2.6,0.9,3.1s1.1,0.7,1.6,0.6c0.9-0.1,1.7-0.1,2.6-0.1l-5.3,4.3
				c-1.2,0-2.5-0.4-3.3-1.1c-1-0.9-1.6-1.8-2-3.1c-0.5-1.5-0.9-3.1-0.9-4.7c-0.1-1.8-0.2-3.8-0.2-6v-14.5h-3.2l2-4.4h1.2
				c0.5,0,0.9-0.4,1.1-0.7c0.5-0.5,0.7-1.1,1-1.7c0-0.5,0-1,0-1.4c0-0.5,0-1.1,0-1.6c0-1.8-0.2-3.7-1.1-5.3
				c-0.6-1.2-1.5-2.2-2.7-3.1c-1.1-0.6-2.2-1-3.4-0.9c-1.2,0-2.3,0.5-3.3,1.1c-1.1,0.7-2,1.8-2.7,3.1c-0.7,1.5-1.1,3.1-1.1,4.8
				c0,1.1,0.4,2.1,1,2.8c0.6,0.7,1.4,1.5,2.2,2c0.7,0.5,1.5,0.9,2.2,1.2c0.6,0.4,1,0.6,1,1l-2.7,4.7c-1.5-1.1-3-2.2-4.7-3
				c-1.1-0.5-2.2-0.7-3.4-0.6c-0.9,0-1.6,0.5-2.2,1.2c-0.5,0.7-0.7,1.7-0.7,2.7c0,1.1,0.5,2.2,1.2,3.1c1,1,2,1.8,3.2,2.6
				c1.2,0.7,2.7,1.6,4.1,2.3c1.5,0.7,2.7,1.6,4.1,2.5c1.1,0.9,2.2,1.7,3.2,2.8c0.9,1,1.2,2.2,1.2,3.4c0,1.5-0.4,2.7-1.1,3.9
				s-1.7,2.5-3,3.4c-1.1,1-2.6,1.8-3.9,2.3c-1.5,0.6-3,1-4.4,1s-2.7-0.2-4.2-0.6c-1.2-0.4-2.3-0.9-3.6-1.4c-1.1-0.6-2.2-1.2-3.3-2.1
				l2.7-5.8c1.2,1.1,2.6,2,3.8,2.7c1.1,0.6,2.2,1.2,3.3,1.6c0.9,0.4,1.8,0.6,2.7,0.9c0.7,0.1,1.5,0.2,2.2,0.1c1.4,0,2.7-0.5,3.7-1.4
				c0.9-1.1,1.1-2,0.6-2.7c-0.6-1-1.5-1.7-2.3-2.2c-1.4-0.9-2.7-1.6-4.2-2.2c-1.6-0.7-3.2-1.6-4.7-2.7c-1.5-1-2.7-2.1-3.9-3.3
				c-1.8-2.2-2.5-5.2-1.5-7.9c0.5-1.2,1.1-2.3,1.8-3.3c0.9-1.1,1.8-2,3-2.7c1.1-0.7,2.2-1.2,3.6-1.5c-0.4-0.4-0.6-0.7-0.9-1.2
				c-0.2-0.6-0.5-1.5-0.6-2.2c-0.2-1.7,0.1-3.6,1.1-5.1c1-1.6,2.2-3,3.7-4.1s3.2-2.1,4.9-2.7c1.6-0.6,3.3-1,5.1-1
				c1.6-0.1,3.1,0.2,4.4,0.9c1.1,0.6,2,1.5,2.3,2.7c0.5,1.5,0.9,3.1,1,4.7c0.1,1.8,0.2,4.3,0.2,7v1.6h6.8l-2.1,4.4h-4.7v14.3
				C252.3,294.1,252.4,296.6,252.5,298.9z"/>
			<path class="st0" d="M267.8,263.7v28.1c0,2.2,0,3.9,0.1,5.3c0,1.1,0.2,2.2,0.4,3.2c0.1,0.6,0.2,1.1,0.6,1.6
				c0.2,0.2,0.6,0.5,1,0.6c0.5,0.1,1,0.1,1.4,0c0.6,0,1.2-0.1,1.8-0.1l-5.3,4.3c-1.2,0-2.5-0.4-3.3-1.1c-1-0.9-1.6-1.8-2-3.1
				c-0.5-1.5-0.9-3.1-1-4.7c-0.1-1.8-0.2-3.8-0.2-6v-20.7c0-0.6-0.2-1.4-0.6-1.8c-0.4-0.5-1-1-1.6-1.1L267.8,263.7z"/>
			<path class="st0" d="M274.2,292.4c0-2.5,0.5-4.8,1.6-7c1.1-2.2,2.3-4.1,4.1-5.8c1.6-1.6,3.6-3.1,5.5-4.2c2-1.1,3.9-1.7,6.2-2.2
				c1.8-0.4,3.8-0.2,5.7,0.2c1.7,0.5,3.2,1.5,4.3,3l-6,3.9c-0.2-0.6-0.7-1.1-1.2-1.6c-0.5-0.5-1.1-0.9-1.7-1.1
				c-0.9-0.4-1.7-0.5-2.7-0.5c-1.2,0-2.5,0.2-3.6,0.7s-2,1.2-2.7,2.1c-0.7,1-1.5,2-1.8,3.1c-0.5,1.1-1,2.3-1.1,3.7h17.7l-2.8,6.3
				h-14.8c0.4,1.8,1.4,3.4,2.7,4.8c1.4,1.4,3.1,2.3,4.9,3c2,0.6,4.1,0.6,6.2,0.2c2.3-0.5,4.6-1.6,6.4-3.2c-1.1,1.4-2.1,2.7-3.2,3.8
				c-1.1,1.1-2.1,2.1-3.2,3.1c-1.1,0.9-2.3,1.6-3.7,2c-0.7,0.2-1.5,0.2-2.2,0.2c-1.1,0-2.2-0.2-3.3-0.5c-1.2-0.4-2.6-0.9-3.7-1.5
				c-1.4-0.6-2.5-1.6-3.4-2.7c-1.1-1.2-2-2.6-2.6-4.1C274.6,296.5,274.2,294.5,274.2,292.4z"/>
			<path class="st1" d="M222.1,231.4h-2.8v3.3h2.8V251c3.1-1,6.3-1.6,9.4-2.2c1-0.1,1.8-0.2,2.8-0.4c1.1-0.1,2.2-0.2,3.3-0.4
				c1-0.1,1.8-0.1,2.8-0.2c1.6-0.1,3.1-0.1,4.7-0.1c1.6,0,3.2,0,4.7,0.1c1,0,1.8,0.1,2.8,0.2c1.1,0.1,2.2,0.2,3.3,0.4
				c1,0.1,1.8,0.2,2.8,0.4l0,0c3.2,0.5,6.4,1.2,9.4,2.2l0,0v-16.3h2.8v-3.3h-14.9v3.3h2.8v5.9c0,1.8-1.1,3.4-2.8,4.2
				c-0.5,0.2-1.1,0.4-1.7,0.4c-0.6,0-1.1-0.1-1.7-0.4c-1.7-0.6-2.8-2.3-2.8-4.2v-5.8h2.8v-3.3h-15v3.3h2.8v5.9
				c0,1.8-1.1,3.4-2.8,4.2c-0.5,0.2-1.1,0.4-1.7,0.4s-1.1-0.1-1.7-0.4c-1.7-0.6-2.8-2.3-2.8-4.2v-5.9h2.8v-3.3L222.1,231.4
				L222.1,231.4z"/>
			<path class="st1" d="M222.1,253.2c15-4.6,31.2-4.6,46.2,0v-1.1c-15-4.6-31.2-4.6-46.2,0V253.2L222.1,253.2z"/>
		</g>
	</g>
</g>
<g>
	<path class="st0" d="M421.3,14.6c-0.6-0.1-1.2-0.2-1.8-0.2c-4.2,0-8.1,2.7-9.6,6.8c-0.3,0.8-20.6,55.1-67,55.1
		c-53.4,0-265.1,6-271.9,6.1c-14.8,0-23.9-7.8-24.3-8.2c-1.9-1.7-4.3-2.6-6.8-2.6c-1.4,0-2.8,0.3-4.2,0.9c-3.7,1.6-6,5.3-6,9.4v20.5
		v20.5c0,4,2.4,7.7,6.1,9.3c1.3,0.6,2.7,0.9,4.2,0.9c2.5,0,4.9-0.9,6.8-2.6c0.1-0.1,2.2-1.9,5.9-3.7c-1.8,5.5-2.8,11.3-2.8,16.9v0.5
		c0,26.2,21.3,47.5,47.5,47.5h2.5V451v12.8l11-6.4l100.7-58.6l100.7,58.6l11,6.4V451V191.6h21.2c23.3,0,42.7-16.8,46.7-39
		c12.7,14.7,18.6,30.7,18.7,30.9c1.5,4.1,5.4,6.7,9.6,6.7c0.6,0,1.2-0.1,1.8-0.2c4.9-0.9,8.4-5.1,8.4-10v-77.7V24.6
		C429.7,19.7,426.2,15.4,421.3,14.6z M40,122.8v-20.5V81.9c0,0,11.9,10.7,31.2,10.7c0,0,217.3-6.1,271.8-6.1s76.6-61.8,76.6-61.8
		v77.7v57.2l-7.2-106.9l-1.7,93.7c-0.4-0.6-0.8-1.2-1.2-1.8c-1.3-2-3-4-4.6-6.1c-1.8-1.9-3.5-4.1-5.6-5.9c-1-0.9-2-1.9-3-2.8
		c-1.1-0.9-2.2-1.7-3.3-2.6c-2.1-1.8-4.6-3.1-6.9-4.6c-0.6-0.3-1.1-0.7-1.7-1l-1.8-0.8c-1.2-0.6-2.4-1.1-3.6-1.6
		c-1.1-0.6-2.3-1-3.5-1.3c-1.2-0.4-2.3-0.8-3.4-1.1c-2.2-0.8-4.4-1.1-6.3-1.5c-2-0.3-3.7-0.9-5.4-0.9c-1.6-0.1-3-0.3-4.2-0.3
		c-2.3-0.2-3.6-0.3-3.6-0.3s1.3,0.3,3.5,0.9c1.1,0.3,2.5,0.6,4,1c1.6,0.3,3.2,1.1,5.1,1.8c1.8,0.7,3.8,1.3,5.8,2.4c1,0.5,2,1,3,1.6
		c1,0.5,2.1,1.1,3.1,1.8c1,0.7,2,1.4,3,2l1.5,1c0.5,0.4,0.9,0.8,1.4,1.2c1.9,1.6,3.9,3.2,5.5,5.1l2.6,2.7c0.8,1,1.5,2,2.3,2.9
		c1.6,1.9,2.7,4,4,5.9c0.1,0.1,0.1,0.2,0.2,0.3c-0.8-0.9-1.6-1.7-2.4-2.6c0,0,0.1,0.1,0.1,0.1s-0.8-1.1-2.5-3
		c-1.7-1.9-4.4-4.5-8.4-7.3c-3.9-2.8-9-5.8-15.3-8.2c-5.4-2.1-11.6-3.9-18.5-4.9l-3.5-23.5l-3.4,22.7c-7.4-0.7-15.1-0.8-23.1-1.1
		c-9.3-0.3-19.1-0.6-29.2-0.7c-10.1-0.1-20.6-0.5-31.2-0.5c-10.6-0.1-21.4-0.1-32.2-0.2c-10.8,0.1-21.6,0.1-32.2,0.2
		c-10.6,0.1-21.1,0.3-31.2,0.5c-10.1,0.1-19.9,0.5-29.2,0.8c-4.6,0.2-9.2,0.3-13.5,0.5c-4.3,0.2-8.3,0.1-12.2-0.3
		c-7.8-0.7-15.3-2-21.9-2.5c-2.9-0.3-5.6-0.4-8.1-0.4l-3.9-20.4l-3.6,18.7c-0.4,0-0.6,0-0.6,0c-2.6,0-5.1,0.2-7.4,0.6l-3.7-19.3
		l-4,21C45.9,117.5,40,122.8,40,122.8z M84.5,143.6c0-7.1,5.8-12.9,12.9-12.9h216V157h-216c-7.1,0-12.9-5.8-12.9-12.9V143.6z
		 M342,130.7h2.5c7.1,0,12.9,5.8,12.9,12.9v0.5c0,7.1-5.8,12.9-12.9,12.9H342V130.7z M395,141.6C395,141.6,394.9,141.6,395,141.6
		C394.9,141.6,395,141.6,395,141.6z M316,451l-104.4-60.8L107.2,451V191.6H316V451z M344.5,181.4h-24.4c3.5-0.1,6.9-0.2,10.2-0.3
		c3.8-0.1,7.5-0.3,11.1-0.7c3.6-0.5,6.9-1.2,9.9-2.2c6.1-1.8,11.1-4.8,14.5-7.8c3.4-3,5.5-6,6.6-8.1c0.6-1,0.9-1.9,1.2-2.5
		c0.3-0.6,0.4-0.8,0.4-0.8s-0.2,0.3-0.5,0.8c-0.4,0.5-0.8,1.3-1.5,2.3c-1.4,1.9-3.7,4.5-7.3,7.1c-3.6,2.4-8.4,4.7-14.3,5.9
		c-5.9,1.3-12.6,1.5-20.2,1.2c-7.6-0.3-15.9-0.5-24.6-0.7c-8.7-0.2-18-0.4-27.5-0.5c-9.5-0.1-19.4-0.3-29.4-0.3
		c-10,0-20.2-0.1-30.4-0.1c-20.4,0.1-40.7,0.1-59.8,0.4c-9.5,0.1-18.8,0.3-27.5,0.5c-8.7,0.2-17,0.4-24.6,0.6
		c-3.8,0.1-7.6,0.3-10.8,0.3c-3.3,0-6.3-0.6-9.1-1.4c-5.6-1.8-9.9-5-13-8c-3.1-3.1-5.1-5.9-6.3-8c-1.2-2-1.8-3.2-1.8-3.2
		s0.3,1.2,1.3,3.4c1,2.2,2.5,5.4,5.4,9c2.8,3.6,7.1,7.5,13.2,10.1c3,1.3,6.5,2.2,10.1,2.5c3.7,0.3,7.2,0.3,11.1,0.4
		c1.9,0.1,3.9,0.1,5.9,0.2H97.4c-20.6,0-37.3-16.7-37.3-37.3v-0.5c0-4.7,0.9-9.6,2.5-14.3c3.6-0.1,8.9,0.2,15.3,1.9
		c-2.3,3.6-3.6,7.8-3.6,12.3v0.5c0,12.8,10.4,23.1,23.1,23.1h226.2v-30.6h8.1v30.6h12.7c12.8,0,23.1-10.4,23.1-23.1v-0.5
		c0-1.8-0.2-3.5-0.6-5.2c4.2,1,9.3,2.3,14.7,7.1C380.9,165.5,364.6,181.4,344.5,181.4z"/>
	<path class="st0" d="M181.8,112.6c6.2-0.1,12.6,0,19,0c6.5,0,13.1-0.1,19.6-0.1c26.3-0.3,52.7-0.5,72.4-0.7
		c9.9-0.1,18.1-0.1,23.9-0.1c5.8,0,9.1-0.1,9.1-0.1s-3.3-0.6-9-1.5c-2.9-0.4-6.3-1-10.4-1.5c-4-0.5-8.5-1-13.5-1.5
		c-4.9-0.4-10.3-0.9-16-1.3c-5.7-0.3-11.7-0.7-17.9-0.9c-6.2-0.1-12.6-0.5-19.1-0.5c-6.5,0-13.1,0-19.7-0.1
		c-6.6,0.1-13.2,0.3-19.7,0.4c-6.5,0.1-12.9,0.5-19.1,0.7c-6.2,0.2-12.2,0.7-17.8,1c-5.7,0.3-11,0.8-16,1.2
		c-19.8,1.7-32.9,3.8-32.9,3.8s13.2,0.7,33,0.9C157.9,112.6,169.5,112.6,181.8,112.6z"/>
</g>
</svg>
