<?xml version="1.0" encoding="utf-8"?>
<!-- Generator: Adobe Illustrator 26.0.1, SVG Export Plug-In . SVG Version: 6.00 Build 0)  -->
<svg version="1.1" id="Слой_1" xmlns="http://www.w3.org/2000/svg" xmlns:xlink="http://www.w3.org/1999/xlink" x="0px" y="0px"
	 viewBox="0 0 1286.1 1663.7" style="enable-background:new 0 0 1286.1 1663.7;" xml:space="preserve">
<style type="text/css">
	.st0{fill:#FFFFFF;}
	.st1{fill-rule:evenodd;clip-rule:evenodd;fill:#FFFFFF;}
</style>
<image style="overflow:visible;" width="1257" height="1639" xlink:href="about-2_1.png"  transform="matrix(1 0 0 1 0 24.7023)">
</image>
<g>
	<g>
		<g>
			<path class="st0" d="M639.4,1317.9c0.8,5.4,1.6,8.7,2.9,10.3c1.2,1.6,3.7,2.5,5.4,2.1c2.9-0.4,5.8-0.4,8.7-0.4l-17.7,14.4
				c-4.1,0-8.2-1.2-11.5-3.7c-3.3-2.9-5.4-6.2-6.6-10.3c-1.6-4.9-2.9-10.3-2.9-15.7c-0.4-6.2-0.8-12.8-0.8-19.8v-49h-10.7l6.6-14.8
				h4.1c1.6,0,2.9-1.2,3.7-2.5c1.6-1.6,2.5-3.7,3.3-5.8c0-1.6,0-3.3,0-4.5c0-1.6,0-3.7,0-5.4c0-6.2-0.8-12.4-3.7-17.7
				c-2.1-4.1-4.9-7.4-9.1-10.3c-3.7-2.1-7.4-3.3-11.1-2.9c-4.1,0-7.8,1.6-11.5,3.7c-3.7,2.5-6.6,6.2-8.7,10.3
				c-2.5,4.9-3.7,10.3-3.7,16.1c0,3.7,1.2,7,3.3,9.5c2.1,2.5,4.5,4.9,7.4,6.6c2.5,1.6,4.9,3.3,7.4,4.1c2.1,1.2,3.3,2.1,3.3,3.3
				l-9.1,16.1c-4.9-3.7-9.9-7.4-15.7-9.9c-3.7-1.6-7.4-2.5-11.5-2.1c-2.9,0-5.4,1.6-7.4,4.1c-1.6,2.5-2.5,5.8-2.5,9.1
				c0,3.7,1.6,7.4,4.1,10.3c3.3,3.3,6.6,6.2,10.7,8.7c4.1,2.5,9.1,5.4,13.6,7.8c4.9,2.5,9.1,5.4,13.6,8.2c3.7,2.9,7.4,5.8,10.7,9.5
				c2.9,3.3,4.1,7.4,4.1,11.5c0,4.9-1.2,9.1-3.7,13.2c-2.5,4.1-5.8,8.2-9.9,11.5c-4.1,3.3-8.7,6.2-13.2,7.8
				c-4.5,2.1-9.5,2.9-14.4,2.9c-4.9,0-9.1-0.8-14-2.1c-4.1-1.2-7.8-2.9-11.9-4.5c-3.7-2.1-7.4-4.1-11.1-7l9.1-19.4
				c4.1,3.7,8.7,6.6,12.8,9.5c3.7,2.1,7.4,4.1,11.1,5.4c2.9,1.2,6.2,2.1,9.1,2.9c2.5,0.4,4.9,0.8,7.4,0.4c4.5,0,9.1-1.6,12.8-4.5
				c2.9-3.7,3.7-6.6,2.1-9.1c-2.1-3.3-4.9-5.8-7.8-7.4c-4.5-2.9-9.1-5.4-14-7.4c-5.4-2.5-10.7-5.4-15.7-9.1
				c-4.9-3.3-9.1-7-13.2-11.1c-6.2-7.4-8.2-17.3-4.9-26.4c1.6-4.1,3.7-7.8,6.2-11.1c2.9-3.7,6.2-6.6,9.9-9.1
				c3.7-2.5,7.4-4.1,11.5-4.9c-1.2-1.2-2.1-2.5-2.9-4.1c-1.2-2.1-1.6-4.9-2.1-7.4c-0.8-5.8,0.4-11.9,3.7-16.9
				c3.3-5.4,7.4-9.9,12.4-13.6c4.9-3.7,10.7-7,16.5-9.1c5.4-2.1,10.7-3.3,16.9-3.3c5.4-0.4,10.3,0.8,14.8,2.9
				c3.7,2.1,6.6,4.9,7.8,9.1c2.1,4.9,2.9,10.3,3.3,15.7c0.4,6.2,0.8,14.4,0.8,23.5v5.4H660l-7,14.8h-15.7v47.8
				C638.6,1301.4,638.6,1309.7,639.4,1317.9z"/>
			<path class="st0" d="M788.2,1287c0,7.4-1.2,15.2-3.7,22.7c-2.5,7-6.6,13.2-11.5,18.5c-5.4,5.4-11.9,9.5-19.4,12.4
				c-8.7,3.3-17.3,4.9-26.8,4.5c-9.1,0-18.1-1.2-26.4-4.5c-7.4-2.9-13.6-7-19.4-12.4c-5.4-5.4-9.1-11.5-11.9-18.5
				c-2.9-7.4-4.1-14.8-4.1-22.7c0-7.4,1.2-15.2,4.1-22.2c2.5-7,6.6-13.2,11.9-18.5c5.4-5.4,11.9-9.5,19.4-12.4
				c8.2-3.3,17.3-4.9,26-4.5c9.1,0,18.1,1.2,26.4,4.5c7.4,2.9,13.6,7,19.4,12.4c5.4,5.4,9.1,11.5,11.9,18.5
				C786.5,1271.8,788.2,1279.2,788.2,1287z M726.8,1339.8c6.2,0,11.9-1.2,17.3-4.1c4.9-2.9,9.5-6.6,12.8-11.1
				c3.7-4.9,6.2-10.7,7.4-16.9c1.6-6.6,2.5-13.6,2.5-20.6c0-7-0.8-14-2.9-20.6c-1.6-6.2-4.5-11.5-7.8-16.9
				c-3.7-4.9-7.4-8.7-12.8-11.5c-5.4-2.9-11.1-4.5-16.9-4.1c-6.2,0-11.9,1.2-17.3,4.1c-4.9,2.9-9.5,6.6-12.8,11.5
				c-3.7,4.9-6.2,10.7-7.4,16.9c-1.6,6.6-2.5,13.6-2.5,20.6c0,7,0.8,14,2.9,20.6c1.6,6.2,4.5,11.5,8.2,16.9
				c3.7,4.9,7.4,8.7,12.8,11.1C714.8,1338.5,720.6,1339.8,726.8,1339.8L726.8,1339.8z"/>
			<path class="st0" d="M825.2,1344.7h-21.8v-88.2c0-2.1-0.8-4.5-2.1-6.2c-1.2-1.6-3.3-3.3-5.4-3.7l29.2-15.2v15.7
				c4.5-4.1,9.5-7.8,14.8-10.7c4.9-2.5,10.3-4.1,16.1-4.9c4.9-0.8,10.3,0,14.8,1.6c4.9,1.6,9.1,4.9,11.9,9.1l-20.2,13.2
				c-0.8-2.1-2.5-3.7-4.1-5.4s-3.7-2.9-5.8-3.7c-2.9-1.2-5.8-1.6-9.1-1.6c-5.8,0-10.3,1.6-12.8,4.1c-2.9,3.3-4.9,7-5.8,11.1V1344.7
				L825.2,1344.7L825.2,1344.7z"/>
			<path class="st0" d="M920.4,1231.4v62.6c0,7.4,0,13.2,0.4,17.7c0,3.7,0.4,7.4,1.2,10.7c0.4,2.1,0.8,3.7,2.1,5.4
				c0.8,1.2,2.1,1.6,3.3,2.1c1.6,0,3.3,0,4.5,0c2.1,0,4.1-0.4,6.2-0.4l-17.7,14.4c-4.1,0-8.2-1.2-11.5-3.7
				c-3.3-2.9-5.4-6.2-6.6-10.3c-1.6-4.9-2.9-10.3-3.3-15.7c-0.4-6.2-0.8-12.8-0.8-19.8v-39.1c0-2.1-0.8-4.5-2.1-6.2
				s-3.3-3.3-5.4-3.7L920.4,1231.4z"/>
			<path class="st0" d="M942.2,1296.1c0-8.2,1.6-16.1,5.4-23.5c3.7-7.4,8.2-13.6,13.6-19.4s11.5-10.3,18.5-14
				c6.6-3.7,13.2-5.8,20.6-7.4c6.2-1.2,12.8-0.8,18.9,0.8c5.8,1.6,10.7,4.9,14.4,9.9l-20.2,13.2c-0.8-2.1-2.5-3.7-4.1-5.4
				s-3.7-2.9-5.8-3.7c-2.9-1.2-5.8-1.6-9.1-1.6c-4.1,0-8.2,0.8-11.9,2.5c-3.7,1.6-6.6,4.1-9.1,7c-2.5,3.3-4.9,6.6-6.2,10.3
				c-1.6,3.7-3.3,7.8-3.7,12.4h59.3l-9.5,21h-50.7c1.2,6.2,4.5,11.5,9.1,16.1s10.3,7.8,16.5,9.9c6.6,2.1,13.6,2.1,20.6,0.8
				c7.8-1.6,15.2-5.4,21.4-10.7c-3.7,4.5-7,9.1-10.7,12.8c-3.7,3.7-7,7-10.7,10.3c-3.7,2.9-7.8,5.4-12.4,6.6
				c-2.5,0.8-4.9,0.8-7.4,0.8c-3.7,0-7.4-0.8-11.1-1.6c-4.1-1.2-8.7-2.9-12.4-4.9c-4.5-2.1-8.2-5.4-11.5-9.1
				c-3.7-4.1-6.6-8.7-8.7-13.6C943.1,1309.3,942.2,1302.7,942.2,1296.1z"/>
			<path class="st0" d="M1063.3,1321.6c3.7,2.1,7.4,4.1,11.1,5.4c2.9,1.2,6.2,2.1,9.1,2.9c2.5,0.4,4.9,0.8,7.4,0.4
				c4.5,0,9.1-1.6,12.8-4.5c2.9-3.7,3.7-6.6,2.1-9.1c-2.1-3.3-4.9-5.8-8.2-7.4c-4.5-2.9-9.1-5.4-14-7.4c-5.4-2.5-10.7-5.4-15.7-9.1
				c-4.9-3.3-9.1-7-13.2-11.1c-7-7.4-8.7-18.1-4.5-27.6c1.6-4.5,4.5-8.7,7.4-11.9c3.3-3.7,7.4-6.6,11.5-9.1
				c4.1-2.1,8.7-3.7,13.2-3.7c3.7,0,7.8,0.4,11.5,1.2c2.9,0.4,5.4,1.6,7.8,2.5c2.1,0.8,4.1,2.1,5.8,3.7l-9.1,16.1
				c-4.5-4.1-9.9-7.4-15.2-10.3c-3.7-1.6-7.4-2.5-11.5-2.1c-2.9,0-5.4,1.6-7.4,4.1c-1.6,2.5-2.5,5.8-2.5,9.1c0,3.7,1.6,7.4,4.1,10.3
				c3.3,3.3,6.6,6.2,10.7,8.7c4.1,2.5,9.1,5.4,13.6,7.8c4.9,2.5,9.1,5.4,13.6,8.2c3.7,2.9,7.4,5.8,10.7,9.5
				c2.9,3.3,4.1,7.4,4.1,11.5c0,4.9-1.2,9.1-3.7,13.2c-2.5,4.5-5.8,8.2-9.9,11.5c-4.1,3.3-8.7,6.2-13.2,7.8
				c-4.5,2.1-9.5,2.9-14.4,2.9s-9.1-0.8-13.6-2.1c-4.1-1.2-7.8-2.9-11.5-4.5c-3.7-2.1-7.4-4.1-11.1-7l8.7-19.4
				C1055.1,1315.4,1059.2,1318.7,1063.3,1321.6z"/>
			<path class="st0" d="M642.3,1128.8c0-8.2,1.6-16.1,5.4-23.5s7.8-13.6,13.6-19.4c5.4-5.4,11.5-10.3,18.5-14
				c6.6-3.7,13.2-5.8,20.6-7.4c6.2-1.2,12.8-0.8,18.9,0.8c6.6,1.6,11.5,4.9,14.8,9.9l-20.2,13.2c-0.8-2.1-2.5-3.7-4.1-5.4
				s-3.7-2.9-5.8-3.7c-2.9-1.2-5.8-1.6-9.1-1.6c-5.4,0-10.3,1.2-14.4,4.1c-4.1,2.9-7.4,6.2-10.3,10.7c-2.9,4.5-4.9,9.5-5.8,14.4
				c-1.2,5.4-2.1,10.7-2.1,16.5c0,7,2.1,13.6,6.2,19.4c4.1,5.8,9.9,9.9,16.5,12.4c7,2.9,14.4,3.7,22.2,2.5
				c8.7-1.2,16.9-5.4,23.5-11.1c-3.7,4.5-7,9.1-10.7,12.8c-3.7,3.7-7,7-10.7,10.3s-7.8,5.4-12.4,6.6c-2.5,0.8-4.9,0.8-7.4,0.8
				c-3.7,0-7.4-0.8-11.1-1.6c-4.1-1.2-8.7-2.9-12.4-4.9c-9.1-4.9-16.5-12.8-20.2-22.7C643.6,1141.6,642.3,1135.4,642.3,1128.8z"/>
			<path class="st0" d="M742.4,1128.8c0-8.2,1.6-16.1,5.4-23.5c3.7-7.4,8.2-13.6,13.6-19.4c5.4-5.4,11.5-10.3,18.5-14
				c6.2-3.7,13.2-6.2,20.6-7.4c6.2-1.2,12.8-0.8,19.4,0.8c5.8,1.6,10.7,4.9,14.4,9.9l11.5-5.8V1177H824v-21.4
				c-1.6,1.6-3.7,3.7-5.4,6.2c-2.1,2.1-4.5,4.1-6.6,6.2c-2.1,2.1-4.9,3.7-7.4,5.4s-4.9,2.9-7.4,3.7c-2.5,0.8-4.9,0.8-7.4,0.8
				c-3.7,0-7.4-0.8-11.1-1.6c-4.1-1.2-8.7-2.9-12.4-4.9c-4.1-2.5-8.2-5.4-11.5-9.1c-3.7-4.1-6.6-8.7-8.7-13.6
				C743.3,1141.6,742,1135.4,742.4,1128.8z M762.6,1124.3c0,6.2,1.6,12.8,5.4,18.1c3.7,5.4,8.7,9.5,14.4,12.4
				c6.2,2.9,12.8,4.5,19.8,4.1c7.4-0.4,15.2-2.5,21.8-7v-57.7c0-1.6-0.4-3.7-1.2-4.9s-2.1-2.9-3.7-3.7l-4.9,3.7
				c-0.8-2.1-2.5-3.7-4.1-5.4c-1.6-1.6-3.7-2.9-5.8-3.7c-2.9-1.2-5.8-1.6-9.1-1.6c-5.4,0-10.3,1.2-14.4,4.1
				c-4.1,2.9-7.4,6.2-10.3,10.7c-2.9,4.5-4.9,9.5-6.2,14.4C763,1113.2,762.6,1118.9,762.6,1124.3L762.6,1124.3z"/>
			<path class="st0" d="M961.2,1150.7c0.8,5.4,1.6,8.7,2.9,10.3s3.7,2.5,5.4,2.1c2.9-0.4,5.8-0.4,8.7-0.4l-17.7,14.4
				c-4.1,0-8.2-1.2-11.1-3.7c-3.3-2.9-5.4-6.2-6.6-10.3c-1.6-4.9-2.9-10.3-2.9-15.7c-0.4-6.2-0.8-12.8-0.8-20.2v-48.6h-10.7
				l6.6-14.8h4.1c1.6,0,2.9-1.2,3.7-2.5c1.6-1.6,2.5-3.7,3.3-5.8c0-1.6,0-3.3,0-4.5c0-1.6,0-3.7,0-5.4c0-6.2-0.8-12.4-3.7-17.7
				c-2.1-4.1-4.9-7.4-9.1-10.3c-3.7-2.1-7.4-3.3-11.5-2.9c-4.1,0-7.8,1.6-11.1,3.7c-3.7,2.5-6.6,6.2-9.1,10.3
				c-2.5,4.9-3.7,10.3-3.7,16.1c0,3.7,1.2,7,3.3,9.5c2.1,2.5,4.5,4.9,7.4,6.6c2.5,1.6,4.9,2.9,7.4,4.1c2.1,1.2,3.3,2.1,3.3,3.3
				l-9.1,15.7c-4.9-3.7-9.9-7.4-15.7-9.9c-3.7-1.6-7.4-2.5-11.5-2.1c-2.9,0-5.4,1.6-7.4,4.1c-1.6,2.5-2.5,5.8-2.5,9.1
				c0,3.7,1.6,7.4,4.1,10.3c3.3,3.3,6.6,6.2,10.7,8.7c4.1,2.5,9.1,5.4,13.6,7.8c4.9,2.5,9.1,5.4,13.6,8.2c3.7,2.9,7.4,5.8,10.7,9.5
				c2.9,3.3,4.1,7.4,4.1,11.5c0,4.9-1.2,9.1-3.7,13.2c-2.5,4.1-5.8,8.2-9.9,11.5c-3.7,3.3-8.7,6.2-13.2,7.8
				c-4.9,2.1-9.9,3.3-14.8,3.3c-4.9,0-9.1-0.8-14-2.1c-4.1-1.2-7.8-2.9-11.9-4.5c-3.7-2.1-7.4-4.1-11.1-7l9.1-19.4
				c4.1,3.7,8.7,6.6,12.8,9.1c3.7,2.1,7.4,4.1,11.1,5.4c2.9,1.2,6.2,2.1,9.1,2.9c2.5,0.4,4.9,0.8,7.4,0.4c4.5,0,9.1-1.6,12.4-4.5
				c2.9-3.7,3.7-6.6,2.1-9.1c-2.1-3.3-4.9-5.8-7.8-7.4c-4.5-2.9-9.1-5.4-14-7.4c-5.4-2.5-10.7-5.4-15.7-9.1
				c-4.9-3.3-9.1-7-13.2-11.1c-6.2-7.4-8.2-17.3-4.9-26.4c1.6-4.1,3.7-7.8,6.2-11.1c2.9-3.7,6.2-6.6,9.9-9.1
				c3.7-2.5,7.4-4.1,11.9-4.9c-1.2-1.2-2.1-2.5-2.9-4.1c-0.8-2.1-1.6-4.9-2.1-7.4c-0.8-5.8,0.4-11.9,3.7-16.9
				c3.3-5.4,7.4-9.9,12.4-13.6c4.9-3.7,10.7-7,16.5-9.1c5.4-2.1,11.1-3.3,16.9-3.3c5.4-0.4,10.3,0.8,14.8,2.9
				c3.7,2.1,6.6,4.9,7.8,9.1c1.6,4.9,2.9,10.3,3.3,15.7c0.4,6.2,0.8,14.4,0.8,23.5v5.4h22.7l-7,14.8h-15.7v47.8
				C960.4,1134.6,960.8,1142.8,961.2,1150.7z"/>
			<path class="st0" d="M1012.3,1032.8v93.9c0,7.4,0,13.2,0.4,17.7c0,3.7,0.8,7.4,1.2,10.7c0.4,2.1,0.8,3.7,2.1,5.4
				c0.8,0.8,2.1,1.6,3.3,2.1c1.6,0.4,3.3,0.4,4.5,0c2.1,0,4.1-0.4,6.2-0.4l-17.7,14.4c-4.1,0-8.2-1.2-11.1-3.7
				c-3.3-2.9-5.4-6.2-6.6-10.3c-1.6-4.9-2.9-10.3-3.3-15.7c-0.4-6.2-0.8-12.8-0.8-20.2v-69.2c0-2.1-0.8-4.5-2.1-6.2
				c-1.2-1.6-3.3-3.3-5.4-3.7L1012.3,1032.8z"/>
			<path class="st0" d="M1033.7,1128.8c0-8.2,1.6-16.1,5.4-23.5c3.7-7.4,7.8-13.6,13.6-19.4c5.4-5.4,11.9-10.3,18.5-14
				s13.2-5.8,20.6-7.4c6.2-1.2,12.8-0.8,19,0.8c5.8,1.6,10.7,4.9,14.4,9.9l-20.2,13.2c-0.8-2.1-2.5-3.7-4.1-5.4s-3.7-2.9-5.8-3.7
				c-2.9-1.2-5.8-1.6-9.1-1.6c-4.1,0-8.2,0.8-11.9,2.5c-3.7,1.6-6.6,4.1-9.1,7c-2.5,3.3-4.9,6.6-6.2,10.3c-1.6,3.7-3.3,7.8-3.7,12.4
				h59.3l-9.5,21h-49.4c1.2,6.2,4.5,11.5,9.1,16.1s10.3,7.8,16.5,9.9c6.6,2.1,13.6,2.1,20.6,0.8c7.8-1.6,15.2-5.4,21.4-10.7
				c-3.7,4.5-7,9.1-10.7,12.8c-3.7,3.7-7,7-10.7,10.3c-3.7,2.9-7.8,5.4-12.4,6.6c-2.5,0.8-4.9,0.8-7.4,0.8c-3.7,0-7.4-0.8-11.1-1.6
				c-4.1-1.2-8.7-2.9-12.4-4.9c-4.5-2.1-8.2-5.4-11.5-9.1c-3.7-4.1-6.6-8.7-8.7-13.6C1034.9,1142.4,1033.7,1135.8,1033.7,1128.8z"/>
			<path class="st1" d="M859.4,924.9H850V936h9.5v54.4c10.3-3.3,21-5.4,31.3-7.4c3.3-0.4,6.2-0.8,9.5-1.2c3.7-0.4,7.4-0.8,11.1-1.2
				c3.3-0.4,6.2-0.4,9.5-0.8c5.4-0.4,10.3-0.4,15.7-0.4c5.4,0,10.7,0,15.7,0.4c3.3,0,6.2,0.4,9.5,0.8c3.7,0.4,7.4,0.8,11.1,1.2
				c3.3,0.4,6.2,0.8,9.5,1.2l0,0c10.7,1.6,21.4,4.1,31.3,7.4l0,0V936h9.5v-11.1h-49.8V936h9.5v19.8c0,6.2-3.7,11.5-9.5,14
				c-1.6,0.8-3.7,1.2-5.8,1.2c-2.1,0-3.7-0.4-5.8-1.2c-5.8-2.1-9.5-7.8-9.5-14v-19.4h9.5v-11.1h-50.3v11.1h9.5v19.8
				c0,6.2-3.7,11.5-9.5,14c-1.6,0.8-3.7,1.2-5.8,1.2s-3.7-0.4-5.8-1.2c-5.8-2.1-9.5-7.8-9.5-14v-19.8h9.5v-11.1L859.4,924.9
				L859.4,924.9z"/>
			<path class="st1" d="M859.4,997.8c50.3-15.2,104.2-15.2,154.5,0v-3.7c-50.3-15.2-104.2-15.2-154.5,0V997.8L859.4,997.8z"/>
		</g>
	</g>
</g>
</svg>
