<svg width="48" height="49" viewBox="0 0 48 49" fill="none" xmlns="http://www.w3.org/2000/svg">
<g clip-path="url(#clip0_614_1175)">
<path d="M24 24.0215C21.0163 24.0215 18.1548 22.8362 16.045 20.7264C13.9353 18.6167 12.75 15.7552 12.75 12.7715C12.75 9.7878 13.9353 6.92632 16.045 4.81653C17.6798 3.18177 19.7659 2.10208 22.0104 1.69876C23.0976 1.50341 24 2.41691 24 3.52148L24 12.7715" stroke="white" stroke-width="1.5" stroke-linecap="round"/>
<path d="M24 24.0215C24 21.0378 25.1853 18.1763 27.295 16.0665C29.4048 13.9567 32.2663 12.7715 35.25 12.7715C38.2337 12.7715 41.0952 13.9567 43.205 16.0665C44.8397 17.7013 45.9194 19.7874 46.3227 22.0319C46.5181 23.1191 45.6046 24.0215 44.5 24.0215L35.25 24.0215" stroke="white" stroke-width="1.5" stroke-linecap="round"/>
<path d="M24 24.0215C26.9837 24.0215 29.8452 25.2067 31.955 27.3165C34.0647 29.4263 35.25 32.2878 35.25 35.2715C35.25 38.2552 34.0647 41.1167 31.955 43.2264C30.3202 44.8612 28.2341 45.9409 25.9896 46.3442C24.9024 46.5396 24 45.6261 24 44.5215L24 35.2715" stroke="white" stroke-width="1.5" stroke-linecap="round"/>
<path d="M24 24.0215C24 27.0052 22.8147 29.8667 20.705 31.9764C18.5952 34.0862 15.7337 35.2715 12.75 35.2715C9.76631 35.2715 6.90483 34.0862 4.79505 31.9764C3.16028 30.3417 2.08059 28.2556 1.67728 26.011C1.48193 24.9239 2.39543 24.0215 3.5 24.0215L12.75 24.0215" stroke="white" stroke-width="1.5" stroke-linecap="round"/>
</g>
<defs>
<clipPath id="clip0_614_1175">
<rect width="48" height="48" fill="white" transform="translate(0 0.0214844)"/>
</clipPath>
</defs>
</svg>
