<svg width="48" height="49" viewBox="0 0 48 49" fill="none" xmlns="http://www.w3.org/2000/svg">
<g clip-path="url(#clip0_614_1184)">
<path d="M22.2818 33.9706C8.46137 33.1739 5.02763 23.2052 5.00017 16.8169C4.99577 15.7934 5.86674 15.015 6.88921 15.0613C22.5715 15.771 24.4872 25.8088 24.2199 32.2283C24.1774 33.251 23.3036 34.0295 22.2818 33.9706Z" stroke="white" stroke-width="1.5"/>
<path d="M26.0483 33.9706C39.8687 33.1739 43.3025 23.2052 43.3299 16.8169C43.3343 15.7934 42.4633 15.015 41.4409 15.0613C25.7586 15.771 23.8429 25.8088 24.1101 32.2283C24.1527 33.251 25.0265 34.0295 26.0483 33.9706Z" stroke="white" stroke-width="1.5"/>
<path d="M16.0879 17.0215C16.2446 13.7305 17.9633 6.37242 23.4886 1.8475C24.1294 1.32273 25.0464 1.32273 25.6872 1.8475C31.2125 6.37242 32.9312 13.7305 33.0879 17.0215" stroke="white" stroke-width="1.5"/>
<path d="M24.0879 34.0215L24.0879 48.0215" stroke="white" stroke-width="1.5" stroke-linecap="round"/>
</g>
<defs>
<clipPath id="clip0_614_1184">
<rect width="48" height="48" fill="white" transform="translate(0 0.0214844)"/>
</clipPath>
</defs>
</svg>
