<svg width="12" height="16" viewBox="0 0 12 16" fill="none" xmlns="http://www.w3.org/2000/svg">
<path d="M10.5 6C10.5 3.51562 8.48438 1.5 6 1.5C3.51562 1.5 1.5 3.51562 1.5 6C1.5 6.3875 1.64062 6.9875 1.97812 7.7875C2.30625 8.5625 2.77188 9.41875 3.30625 10.2844C4.19688 11.7281 5.22813 13.1219 6 14.1156C6.775 13.1219 7.80625 11.7281 8.69375 10.2844C9.22813 9.41875 9.69375 8.5625 10.0219 7.7875C10.3594 6.9875 10.5 6.3875 10.5 6ZM12 6C12 8.73125 8.34375 13.5938 6.74062 15.6C6.35625 16.0781 5.64375 16.0781 5.25938 15.6C3.65625 13.5938 0 8.73125 0 6C0 2.6875 2.6875 0 6 0C9.3125 0 12 2.6875 12 6ZM7 6C7 5.73478 6.89464 5.48043 6.70711 5.29289C6.51957 5.10536 6.26522 5 6 5C5.73478 5 5.48043 5.10536 5.29289 5.29289C5.10536 5.48043 5 5.73478 5 6C5 6.26522 5.10536 6.51957 5.29289 6.70711C5.48043 6.89464 5.73478 7 6 7C6.26522 7 6.51957 6.89464 6.70711 6.70711C6.89464 6.51957 7 6.26522 7 6ZM3.5 6C3.5 5.33696 3.76339 4.70107 4.23223 4.23223C4.70107 3.76339 5.33696 3.5 6 3.5C6.66304 3.5 7.29893 3.76339 7.76777 4.23223C8.23661 4.70107 8.5 5.33696 8.5 6C8.5 6.66304 8.23661 7.29893 7.76777 7.76777C7.29893 8.23661 6.66304 8.5 6 8.5C5.33696 8.5 4.70107 8.23661 4.23223 7.76777C3.76339 7.29893 3.5 6.66304 3.5 6Z" fill="#796C5C"/>
</svg>
