<svg id="Слой_1" data-name="Слой 1" xmlns="http://www.w3.org/2000/svg" xmlns:xlink="http://www.w3.org/1999/xlink" viewBox="0 0 200 200"><defs><style>.cls-1{fill:none;}.cls-2{clip-path:url(#clip-path);}.cls-3{fill:#fff;}</style><clipPath id="clip-path"><rect class="cls-1" x="-10.56" y="-7.48" width="220.02" height="220.02"/></clipPath></defs><g class="cls-2"><path class="cls-3" d="M-59.95,152.25h0v69.21H260V140.83h-6.34v2.46h-5.45v-2.46h-8v2.46h-5.45v-2.46h-6.33v11.42H221v-8.33h.81a2.88,2.88,0,0,0,2.58-1.45,2.32,2.32,0,0,0-.42-2.8l-16.81-17.22-1.84-6.62-.72-2.57-.72,2.57L202,122.45l-16.81,17.22a2.33,2.33,0,0,0-.43,2.8,2.89,2.89,0,0,0,2.58,1.45h.82v8.33h-6.52V103.42h-8.4v3.63h-9v-3.63H153.35v3.63h-9v-3.63H136v16.87H124.1V81.48h1.66a3.81,3.81,0,0,0,3.39-1.91,3.07,3.07,0,0,0-.56-3.69l-25-25.59-2.22-8.53V26.88a1.51,1.51,0,0,0,.82-1.3,1.81,1.81,0,0,0-3.59,0,1.47,1.47,0,0,0,.46,1c-1.37-.24-3.44.05-6.44,1.91-6.63,4.11-19.39,0-19.39,0A16.15,16.15,0,0,0,73,36c.9,3.75-.5,4.89-.5,4.89,12,3.33,21.44-.71,22.09-2.41.41-1.07,3-.41,4.83.23v3L97.2,50.29l-25,25.59a3.06,3.06,0,0,0-.56,3.69A3.79,3.79,0,0,0,75,81.48H76.7v38.81H64.81V103.42h-8.4v3.63h-9v-3.63H36.53v3.63h-9v-3.63h-8.4v48.83H11.85v-8.33h.82a2.89,2.89,0,0,0,2.58-1.45,2.33,2.33,0,0,0-.43-2.8L-2,122.45l-1.84-6.62-.72-2.57-.72,2.57-1.84,6.62-16.81,17.22a2.32,2.32,0,0,0-.42,2.8,2.89,2.89,0,0,0,2.58,1.45h.81v8.33h-7.39V140.8h-6.33v2.46h-5.45V140.8h-8.05v2.46h-5.44V140.8h-6.34v11.45ZM-1.86,144v9.14H-7.31V144a2.57,2.57,0,0,1,2.73-2.36A2.56,2.56,0,0,1-1.86,144Zm-42.28,14.7a2.57,2.57,0,0,1,2.73,2.36v9.14h-5.46v-9.14A2.57,2.57,0,0,1-44.14,158.69Zm88.86-25.12H39.26v-9.13a2.76,2.76,0,0,1,5.46,0Zm58.41-35.33H97.67V89.1a2.76,2.76,0,0,1,5.46,0Zm53,26.2a2.76,2.76,0,0,1,5.46,0v9.13h-5.46ZM207.28,144v9.14h-5.46V144a2.76,2.76,0,0,1,5.46,0Zm36.91,14.7a2.57,2.57,0,0,1,2.73,2.36v9.14h-5.46v-9.14A2.57,2.57,0,0,1,244.19,158.69Z"/></g></svg>