<svg id="Слой_1" data-name="Слой 1" xmlns="http://www.w3.org/2000/svg" xmlns:xlink="http://www.w3.org/1999/xlink" viewBox="0 0 200 200"><defs><style>.cls-1{fill:none;}.cls-2{clip-path:url(#clip-path);}.cls-3{fill:#fff;}</style><clipPath id="clip-path"><rect class="cls-1" x="-223.26" y="-7.48" width="220.02" height="220.02"/></clipPath></defs><g class="cls-2"><path class="cls-3" d="M-272.65,152.25h-.05v69.21h320V140.83H41v2.46H35.51v-2.46h-8v2.46H22v-2.46H15.68v11.42H8.25v-8.33h.81a2.89,2.89,0,0,0,2.58-1.45,2.33,2.33,0,0,0-.42-2.8L-5.59,122.45l-1.85-6.62-.71-2.57-.72,2.57-1.85,6.62-16.81,17.22a2.34,2.34,0,0,0-.42,2.8,2.89,2.89,0,0,0,2.58,1.45h.82v8.33h-6.52V103.42h-8.4v3.63h-9v-3.63H-59.35v3.63h-9v-3.63h-8.41v16.87H-88.6V81.48h1.66a3.79,3.79,0,0,0,3.38-1.91,3.06,3.06,0,0,0-.56-3.69l-25-25.59-2.22-8.53V26.88a1.5,1.5,0,0,0,.81-1.3A1.69,1.69,0,0,0-112.3,24a1.7,1.7,0,0,0-1.8,1.55,1.44,1.44,0,0,0,.47,1c-1.37-.24-3.44.05-6.44,1.91-6.63,4.11-19.39,0-19.39,0a16.08,16.08,0,0,0-.25,7.51c.9,3.75-.49,4.89-.49,4.89,11.95,3.33,21.44-.71,22.09-2.41.41-1.07,3-.41,4.83.23v3l-2.23,8.53-25,25.59a3.07,3.07,0,0,0-.56,3.69,3.8,3.8,0,0,0,3.39,1.91H-136v38.81h-11.89V103.42h-8.4v3.63h-9v-3.63h-10.92v3.63h-9v-3.63h-8.41v48.83h-7.31v-8.33h.81a2.9,2.9,0,0,0,2.59-1.45,2.33,2.33,0,0,0-.43-2.8l-16.81-17.22-1.84-6.62-.72-2.57-.72,2.57-1.84,6.62-16.81,17.22a2.33,2.33,0,0,0-.43,2.8,2.89,2.89,0,0,0,2.58,1.45h.82v8.33H-241V140.8h-6.34v2.46h-5.44V140.8h-8.05v2.46h-5.45V140.8h-6.33v11.45Zm58.09-8.26v9.14H-220V144a2.57,2.57,0,0,1,2.73-2.36A2.57,2.57,0,0,1-214.56,144Zm-42.29,14.7a2.57,2.57,0,0,1,2.73,2.36v9.14h-5.46v-9.14A2.57,2.57,0,0,1-256.85,158.69ZM-168,133.57h-5.46v-9.13a2.57,2.57,0,0,1,2.73-2.37,2.57,2.57,0,0,1,2.73,2.37Zm58.41-35.33H-115V89.1a2.57,2.57,0,0,1,2.73-2.36,2.57,2.57,0,0,1,2.73,2.36Zm53,26.2a2.57,2.57,0,0,1,2.73-2.37,2.57,2.57,0,0,1,2.73,2.37v9.13h-5.46ZM-5.42,144v9.14h-5.46V144a2.57,2.57,0,0,1,2.73-2.36A2.57,2.57,0,0,1-5.42,144Zm36.91,14.7a2.57,2.57,0,0,1,2.73,2.36v9.14H28.76v-9.14A2.57,2.57,0,0,1,31.49,158.69Z"/></g><path class="cls-3" d="M175,37.05,159.89,14S143.77,20.76,130,22.45C115.68,24.2,100,22.09,100,22.09s-15.68,2.11-29.95.36C56.23,20.76,40.11,14,40.11,14L25,37.05A65.88,65.88,0,0,1,37.52,75.17c0,33.36-10,33.36-10,61.33,0,19.93,15.26,37.64,50.26,42.31,5.86.78,16.46,2.78,22.24,7.22,5.78-4.44,16.38-6.44,22.24-7.22,35-4.67,50.26-22.38,50.26-42.31,0-28-10-28-10-61.33A65.88,65.88,0,0,1,175,37.05Zm-9,79.16a58.74,58.74,0,0,1,1.94,12c.07,1,.11,2,.13,3s0,1.94,0,3a39.61,39.61,0,0,1-.56,6.15,33.64,33.64,0,0,1-4.26,11.57,32.88,32.88,0,0,1-3.59,5,36.89,36.89,0,0,1-4.33,4.33,42.86,42.86,0,0,1-4.88,3.63c-.84.57-1.73,1-2.6,1.56s-1.77,1-2.68,1.39A66.19,66.19,0,0,1,134,172a89.73,89.73,0,0,1-11.66,2.32l-2.91.37c-1,.12-1.91.26-2.86.42-1.91.31-3.8.69-5.66,1.16-3.7,1-7.43,2.17-10.49,4.38h0l-.38.3-.4-.3a22.14,22.14,0,0,0-5-2.69,45,45,0,0,0-5.49-1.77c-1.87-.49-3.77-.88-5.68-1.2s-3.81-.55-5.79-.83A88,88,0,0,1,66,171.76a66.79,66.79,0,0,1-11.19-4.27,49.45,49.45,0,0,1-5.24-3c-.85-.53-1.66-1.14-2.49-1.73s-1.6-1.23-2.35-1.92a36.93,36.93,0,0,1-7.82-9.35A34,34,0,0,1,32.79,140c-.1-.51-.14-1-.21-1.52s-.12-1-.15-1.55c-.1-1.1-.1-2-.12-3,0-2,.06-4,.21-6a58.21,58.21,0,0,1,2.09-11.9c1.11-3.89,2.64-7.57,4-11.19a67.35,67.35,0,0,0,3.08-11A83.46,83.46,0,0,0,42.9,82.28c0-1,.08-1.89.09-2.88l0-1.47V76.51a54.46,54.46,0,0,0-.33-5.7,71.48,71.48,0,0,0-2.12-11.27,95.24,95.24,0,0,0-3.67-11,91.81,91.81,0,0,0-5-10.45l-.36-.64L32,37c1.89-2.52,3.74-5.08,5.61-7.62l5.6-7.64.48-.65.79.25h0c2.22.74,4.48,1.45,6.74,2.12s4.53,1.32,6.81,1.91c1.14.3,2.28.6,3.43.87s2.29.54,3.45.79,2.3.48,3.45.71,2.3.42,3.48.58l.88.14.86.1,1.74.2c1.17.08,2.34.2,3.51.23s2.35.06,3.53.08,2.35,0,3.53-.08,2.35-.12,3.53-.2,2.35-.19,3.52-.31c2.34-.25,4.69-.57,7-1h.17c2.32.34,4.68.6,7,.79,1.17.1,2.35.18,3.53.25s2.35.12,3.53.15,2.36,0,3.54,0,2.35,0,3.52-.09l1.76-.09,1.75-.13c1.15-.1,2.37-.25,3.5-.4,4.65-.67,9.27-1.68,13.85-2.81q3.43-.87,6.84-1.83c2.26-.65,4.53-1.33,6.76-2h0l.75-.23.45.6,12.64,16.81-.35.57a87.67,87.67,0,0,0-5.25,10.26,84.83,84.83,0,0,0-3.85,10.81,66.91,66.91,0,0,0-2.15,11.15c-.09.93-.18,1.89-.21,2.8,0,.47-.05.91-.05,1.39V77l0,2.84.11,2.88A85.4,85.4,0,0,0,159.1,94a67.87,67.87,0,0,0,3,11C163.43,108.59,164.92,112.3,166,116.21Z"/><path class="cls-3" d="M67,143.88c-1.09,2.75-4.18,3.07-4.92,3.11,6.45,0,5.91-5.76,5.91-5.76A15.73,15.73,0,0,1,67,143.88Z"/><path class="cls-3" d="M67.3,134.21s.66,1-.26,1.66a18.35,18.35,0,0,0-2.4,2.3l2.46-1.82C67.72,135.88,69.24,135,67.3,134.21Z"/><path class="cls-3" d="M70.07,127.11c-.32.74.5,1.37.5,1.37s-.89-1.4.92-1.37a1.62,1.62,0,0,0,1.8-1.59C73.1,126.34,70.38,126.36,70.07,127.11Z"/><path class="cls-3" d="M158.14,106.41a73.52,73.52,0,0,1-3.29-11.59,83.41,83.41,0,0,1-1.33-11.94l-.08-3c0-1,0-2,0-3l.05-1.47c0-.5.06-1,.09-1.54.07-1,.19-2,.31-3a61.54,61.54,0,0,1,2.73-11.75,74.3,74.3,0,0,1,4.71-11c.93-1.76,1.92-3.48,3-5.16,1-1.5,2-2.93,3.05-4.35l-11.75-15c-2.06.6-4.1,1.16-6.16,1.7q-3.47.9-6.94,1.69a139.27,139.27,0,0,1-14.08,2.53c-.62.09-1.19.13-1.78.19s-1.18.12-1.79.14l-1.8.11-1.79.05c-1.19,0-2.39,0-3.58,0s-2.39-.06-3.58-.12-2.37-.14-3.56-.23-2.37-.2-3.56-.32c-2.34-.25-4.66-.56-7-.95-2.32.47-4.64.84-7,1.15-1.18.15-2.37.28-3.55.4s-2.38.22-3.57.28-2.38.12-3.57.17-2.39,0-3.59,0-2.39-.08-3.59-.14l-1.79-.16L72.47,30l-.88-.11c-1.17-.14-2.36-.33-3.55-.52s-2.35-.4-3.52-.63-2.34-.47-3.5-.72-2.33-.53-3.49-.79c-2.32-.56-4.62-1.15-6.92-1.78-2-.55-4.06-1.13-6.09-1.75l-5.26,6.9c-1.77,2.34-3.55,4.66-5.31,7a79.58,79.58,0,0,1,5.43,9.86,84.45,84.45,0,0,1,4.27,11.16c.58,1.91,1.08,3.86,1.5,5.82a56.22,56.22,0,0,1,1,5.94,57.8,57.8,0,0,1,.43,6l0,.76v2.22c0,1-.05,2-.08,3A81.83,81.83,0,0,1,45.2,94.38,71.32,71.32,0,0,1,41.87,106c-1.39,3.73-2.91,7.29-4,10.94a54.3,54.3,0,0,0-2.06,11.21c-.17,1.9-.23,3.82-.26,5.75,0,.87,0,2,.09,2.83q0,.67.12,1.38c.06.46.09.93.18,1.39A32,32,0,0,0,39.55,150a31.66,31.66,0,0,0,3.15,4.65,33.39,33.39,0,0,0,3.88,4.1c.69.65,1.44,1.23,2.17,1.83s1.51,1.16,2.31,1.67A47.55,47.55,0,0,0,56,165.18a64,64,0,0,0,10.68,4.31A88.31,88.31,0,0,0,78,172.14c1.89.33,3.88.61,5.82,1s3.88.85,5.79,1.4a43.85,43.85,0,0,1,5.62,2,24.7,24.7,0,0,1,4.82,2.78,24.26,24.26,0,0,1,4.78-2.81,41,41,0,0,1,5.61-2.06c1.9-.56,3.83-1,5.77-1.43,1-.2,1.94-.38,2.92-.55L122,172a90.71,90.71,0,0,0,11.22-2.69,62.45,62.45,0,0,0,10.6-4.31c.85-.42,1.66-.91,2.49-1.38s1.62-1,2.38-1.53a38.31,38.31,0,0,0,4.45-3.45,33.4,33.4,0,0,0,3.86-4,30.15,30.15,0,0,0,3.13-4.58,30.92,30.92,0,0,0,3.61-10.38,35,35,0,0,0,.43-5.51c0-.92,0-2-.08-2.89s-.08-1.87-.17-2.83A57.87,57.87,0,0,0,162,117.32C161,113.69,159.5,110.14,158.14,106.41ZM145.61,89.75c-.59.85-2.48,1.19-3.93-1.08s-1.8-3.33-.33-4.58a1.73,1.73,0,0,1-1.33-.58,13.41,13.41,0,0,0-1.64-2.87c-1.47-1.8-5.22-6.84-8.17-4.15s-2.57,8.57-2.51,11-3.72,2.5-3.78,4.14-.67,1.85.84,2.18,5.84.93,7.73,1.12,3.91.45,5.58,2.34c.74.83.16.64-.22,2.44s.54,6.41.54,6.41a6.21,6.21,0,0,1-.18,4.15c-.55,1.34.5,5-.38,6.59s-1,1.65-2.08,1.56a2.84,2.84,0,0,1-2.47-2.45c-.56-2.27.08-3.63.85-4.21s1.34-1,1-2.06c-.44-1.5,0-2.77.13-4.52s.69-5.22-1.43-6.07c-.71-.28-.19-.19-3.05,0-4.17.26-10.17.55-10.88,2.47-1,2.66-6.1,12.9-10.88,16.56s-8,4.72-7.6,9.33c.37,4.25-2,7.11-3.63,10.14-2.06,3.78-4.09,8.59,0,10.45s13.51,7.11,14.93,7.79,2.79,3.6,2.79,3.6a22.2,22.2,0,0,1-4.89.45c-3.08,0-3.57-1.78-3.45-3s-2.22-1.39-3.89-1.26-5.76-4.95-8.58-5.67-6.64-1.44-6.73-3.33S90.32,139,90.32,139,84,142.68,82,145.16s1.48,8.2,2.43,9.82,4.37,4.64,6.12,4.55,4.73,4.05,4,5-3.69.81-5.27.81-2.07-2.11-1.94-3.24-1.08-1.44-1.62-1.39-2.07-.09-3.15-2.21-4.14-8.24-5.9-10.45-2.34-4.1.36-5.9,4.37-5.84,3.24-7.52a51.61,51.61,0,0,0-4.32-5.7c-1,4.62-1,10.14-2.44,14.71-2,6.45-5.84,8.58-9,9.4-5.13,1.33-7.47-.91-7.47-.91a7.82,7.82,0,0,0,3.81-.29c.63-.18,1.32-.61,2.12-.88a18.35,18.35,0,0,1-4.42-1.53,3.94,3.94,0,0,0-3.15.12s.87-1.71,3.62-1.21a11.25,11.25,0,0,0,4.48.06c-2.69.16-5.83-3-5.83-3,1.06.86,2.27,1.42,6,.58,2.07-.46,2.79-2.65,4.09-5.07-2.5,4.19-5,3.94-5,3.94,1.35-.75,3-4.55,3.67-5.64a5.18,5.18,0,0,0,.66-1.84,3.28,3.28,0,0,1-2.46,1.33c-.92.18-2,2.06-2,2.06.19-1.88,2.85-4.07,3.71-5a1.54,1.54,0,0,0,.43-1.6c-1.23-.13-2.62-.66-3.48-.35-1.42.51-1.31,1.4-1.31,1.4-.84-2.92,2.91-2.86,4.7-2.78a3.29,3.29,0,0,0,1.9-.66c-1.76.39-4.26-.27-5.26-.18a2.15,2.15,0,0,0-1.76,1c-.11-1.22,1.14-1.66,2.55-1.71s4.61-.46,5.56-1.47-.28-.44-.39-1.87S71,125.78,72,125.45s.92-.68.92-.68a6,6,0,0,1-3.28.07c-.95-.31-2.79.65-2.79.65.72-.38,1-1.3,3.42-1.36,1.64,0,4.54-1.77,6.06-2.2a13.3,13.3,0,0,1,.88-2.68c3.59-8.07,12.9-15.47,16.49-24.37-1.89.56-4,1-4.79,1.9a18.75,18.75,0,0,1-4.31,3.38c2.47-2.39,1.54-3.67,3.56-6,.16-.18.21-.23.4-.42a34.12,34.12,0,0,0-3.85.36c-2,.52-1.52,1.37-4.58,2.53a5.73,5.73,0,0,0-2.54,2.21,8.87,8.87,0,0,1,3.15-4.69,13.51,13.51,0,0,1,6-3,6.87,6.87,0,0,0,3.2-1.82A18.6,18.6,0,0,0,84.7,90c-1.81.55-5.33,0-5.33,0a7.36,7.36,0,0,0,4.32-1.23,15.23,15.23,0,0,1,2.29-1,19.86,19.86,0,0,1-4.85-1.6c-1.7-.74-5.07.78-5.07.78s2.55-2.48,5.57-2a12.54,12.54,0,0,0,4.89,0c-2.94.21-6.42-3.16-6.42-3.16,1.17.92,2.51,1.51,6.51.53,2.25-.54,3-3,4.38-5.6-2.84,3.68-5.87,3.19-5.87,3.19,1.47-.85,3.7-3.83,4.37-5a5.69,5.69,0,0,0,.69-2c-.57.8-1.18,1.08-2.67,1.5a6.89,6.89,0,0,0-2.76,2c.85-2.21,3.7-4.19,4.63-5.17a1.71,1.71,0,0,0,.43-1.77c-1.34-.11-2.87-.67-3.81-.32-1.54.58-1.31,2.8-1.31,2.8-1.63-3.87,3-4.42,5-4.37a3.68,3.68,0,0,0,2.07-.74c-1.93.45-4.66-.24-5.75-.12-2.5.29-2.79,2-2.79,2-.14-1.33,2.1-2.72,3.64-2.79s5-.58,6-1.7-.32-.48-.46-2,1.79-2,2.89-2.38,1-.76,1-.76a6.13,6.13,0,0,1-3.61-.46,6.9,6.9,0,0,0-3.12.43,5.82,5.82,0,0,1,3.8-1.21c1.55-.06,4.14-1.12,5.87-1.7a7.21,7.21,0,0,1,1.22-1.55c.31-.29.63-.57,1-.83-.54-.5-.94-1-.84-1.48.26-1.16-2.33-1.16-.53-1.94,1.49-.66,4,.87,4.76,1.41a9.63,9.63,0,0,1,1.79-.5c-.46-1.24.34-3.68.7-4.43s.89-.44.89.32.13.79.93,1.86a2.89,2.89,0,0,1,.39,2.26l.28.06,8.86-16-5.8,17.31c.17.11.35.23.51.35,3.23,2.36,9.1,4.52,11.79,5.34s2.53,2.49,3.25,3,2,2.51,1,3.43-2.87,3.15-4.5,2.24-1.63-.89-4.61-.3-4.88,1-6.77.61A2.33,2.33,0,0,0,111.08,70a5.32,5.32,0,0,0,2.86,4.33c1.67.81,2.24,0,4.87,2.12S121.19,79.74,122,79a11.41,11.41,0,0,0,3-3.48c.55-1.38,2.86-1.86,4.64-3.11s3.56-1.39,4.57.24c1.14,1.84,4.32,4.45,6.68,5.82s2.84,1.45,2.93,2.77a9.73,9.73,0,0,0,1.08,3.58,3.26,3.26,0,0,1,.68,2.16C145.44,87.77,146.24,88.86,145.61,89.75Z"/><path class="cls-3" d="M94.27,164.28s0-.14-.21-.72c0,0-.89.89-4.31,1.35C89.75,164.91,94.13,164.86,94.27,164.28Z"/><path class="cls-3" d="M61,149.44c4.09,1.15,4.31-1,4.31-1A7.25,7.25,0,0,1,61,149.44Z"/><path class="cls-3" d="M114.89,159.18a.81.81,0,0,0-.33-.59c-.31.41-3.63.88-3.63.88A20.37,20.37,0,0,0,114.89,159.18Z"/><path class="cls-3" d="M91.47,65.92c4.37.09,3.21-2,3.21-2C94.23,65.09,91.47,65.92,91.47,65.92Z"/><path class="cls-3" d="M141.62,84.37a40.93,40.93,0,0,1,3.56,2.79A4.27,4.27,0,0,0,141.62,84.37Z"/><path class="cls-3" d="M98.76,58.22a1.57,1.57,0,0,0,1.58-1.56,25,25,0,0,1-5.11,1.45C97.89,57.71,97.22,58.22,98.76,58.22Z"/><path class="cls-3" d="M134.67,111.86c1.73,2.06,1.67,5.78,1.67,5.78C137.61,114.23,134.67,111.86,134.67,111.86Z"/><path class="cls-3" d="M91,69.74c.2,1.38-2.4,3-2.4,3C93.3,70.89,91,69.74,91,69.74Z"/><path class="cls-3" d="M86.85,92.39c3.58,0,4-2.12,4-2.12C90.22,91.26,86.85,92.39,86.85,92.39Z"/><path class="cls-3" d="M86.5,88.76a10.58,10.58,0,0,1,4.36,0S89.93,87.33,86.5,88.76Z"/><path class="cls-3" d="M85.89,83.5a3.83,3.83,0,0,0,3.69-.67C91.46,81.5,92,77.08,92,76.35a27.39,27.39,0,0,1-1.57,3.88C88.71,84.08,85.89,83.5,85.89,83.5Z"/></svg>