<svg id="Слой_1" data-name="Слой 1" xmlns="http://www.w3.org/2000/svg" xmlns:xlink="http://www.w3.org/1999/xlink" viewBox="0 0 200 200"><defs><style>.cls-1{fill:none;}.cls-2{fill:#fff;}.cls-3{clip-path:url(#clip-path);}</style><clipPath id="clip-path"><rect class="cls-1" x="203.24" y="-7.48" width="220.02" height="220.02"/></clipPath></defs><path class="cls-2" d="M176.61,10.19a4.14,4.14,0,0,0-.7-.06,4.09,4.09,0,0,0-3.84,2.71c-.12.32-8.25,22-26.79,22-21.36,0-106,2.38-108.77,2.46a15.75,15.75,0,0,1-9.72-3.27,4,4,0,0,0-2.71-1A4.09,4.09,0,0,0,20,37.12V53.5a4.09,4.09,0,0,0,6.82,3A12.69,12.69,0,0,1,29.18,55a21.89,21.89,0,0,0-1.12,6.78V62a19,19,0,0,0,19,19h1V189.87l4.42-2.58,40.27-23.46L133,187.29l4.42,2.58V81h8.46a19,19,0,0,0,18.7-15.6,44.9,44.9,0,0,1,7.47,12.37,4.09,4.09,0,0,0,3.84,2.69,4.25,4.25,0,0,0,.71-.06,4.08,4.08,0,0,0,3.38-4V14.22A4.09,4.09,0,0,0,176.61,10.19ZM24.09,53.5V37.12a19.81,19.81,0,0,0,12.48,4.29S123.49,39,145.28,39s30.63-24.74,30.63-24.74v54L173,25.44l-.66,37.49-.48-.73c-.52-.82-1.19-1.61-1.83-2.44a30.88,30.88,0,0,0-2.23-2.37l-1.22-1.13-1.33-1a24.33,24.33,0,0,0-2.76-1.82c-.23-.14-.46-.29-.7-.41l-.72-.34L159.67,52a8.25,8.25,0,0,0-1.4-.54L156.9,51a18,18,0,0,0-2.54-.62,16.46,16.46,0,0,0-2.15-.37l-1.68-.14-1.45-.12,1.41.35,1.61.41a14.49,14.49,0,0,1,2,.7,14.91,14.91,0,0,1,2.31,1l1.21.63a7.9,7.9,0,0,1,1.22.71l1.21.82.61.41c.2.15.38.32.57.48a21.36,21.36,0,0,1,2.21,2l1,1.1.91,1.17c.63.75,1.09,1.62,1.61,2.37l.06.12c-.31-.34-.62-.68-.95-1l0,0a10.52,10.52,0,0,0-1-1.21,22,22,0,0,0-3.35-2.92,28.62,28.62,0,0,0-6.14-3.29,34.33,34.33,0,0,0-7.4-2l-1.39-9.42-1.35,9.09c-2.95-.28-6-.33-9.25-.43-3.71-.12-7.63-.24-11.68-.3s-8.24-.18-12.5-.18l-12.9-.07-12.9.08c-4.25,0-8.44.14-12.49.2s-8,.21-11.68.31l-5.42.19A39.24,39.24,0,0,1,51.82,51c-3.14-.29-6.1-.8-8.77-1-1.15-.11-2.23-.14-3.25-.15l-1.56-8.17-1.42,7.5h-.25a19.92,19.92,0,0,0-3,.22l-1.47-7.72-1.6,8.41A18.57,18.57,0,0,0,24.09,53.5ZM41.9,61.82a5.18,5.18,0,0,1,5.17-5.17h86.4V67.19H47.07A5.18,5.18,0,0,1,41.9,62Zm103-5.17h1a5.18,5.18,0,0,1,5.17,5.17V62a5.18,5.18,0,0,1-5.17,5.17h-1ZM166.1,61l0,0ZM134.5,184.75,92.75,160.43,51,184.75V81h83.5ZM145.9,76.94h-9.77l4.09-.13a43,43,0,0,0,4.45-.29,24.48,24.48,0,0,0,4-.87,16.06,16.06,0,0,0,5.8-3.11,11.64,11.64,0,0,0,2.64-3.26c.25-.41.37-.76.49-1l.16-.34-.2.32c-.15.2-.31.53-.61.9A12.18,12.18,0,0,1,154,72a16,16,0,0,1-5.72,2.38,30.9,30.9,0,0,1-8.09.48c-3.06-.11-6.37-.2-9.86-.27s-7.19-.17-11-.21-7.76-.13-11.76-.13l-12.15-.06c-8.14,0-16.28,0-23.92.17-3.81,0-7.5.11-11,.2s-6.81.14-9.86.25c-1.5,0-3,.11-4.33.12a13.29,13.29,0,0,1-3.66-.57,13.11,13.11,0,0,1-5.21-3.19A17.16,17.16,0,0,1,34.92,68a10.81,10.81,0,0,1-.7-1.28,10.38,10.38,0,0,0,.52,1.37,15.51,15.51,0,0,0,2.17,3.59,13.26,13.26,0,0,0,9.32,5c1.49.1,2.88.1,4.43.16l2.35.08H47.07A14.94,14.94,0,0,1,32.15,62v-.2a18,18,0,0,1,1-5.7,19.82,19.82,0,0,1,6.1.77,9.23,9.23,0,0,0-1.43,4.93V62a9.26,9.26,0,0,0,9.26,9.25h90.49V59h3.25V71.27h5.09A9.26,9.26,0,0,0,155.15,62v-.2a9.31,9.31,0,0,0-.24-2.07,12.17,12.17,0,0,1,5.88,2.84A14.93,14.93,0,0,1,145.9,76.94Z"/><path class="cls-2" d="M80.84,49.41c2.47,0,5,0,7.61,0l7.86,0,29-.3,9.56,0c2.31,0,3.64,0,3.64,0s-1.3-.24-3.59-.6c-1.15-.18-2.54-.42-4.14-.59s-3.42-.42-5.39-.59-4.12-.36-6.39-.51-4.67-.28-7.15-.37-5-.19-7.64-.2l-7.89,0-7.88.16c-2.6.05-5.16.19-7.64.3s-4.86.27-7.13.42-4.4.33-6.38.49C59.35,48.12,54.11,49,54.11,49s5.3.27,13.21.36C71.28,49.39,75.89,49.41,80.84,49.41Z"/><path class="cls-2" d="M71.73,109c0,2.21.08,4.5.19,6.82s.22,4.66.28,7,.14,4.67.17,7,0,4.59.07,6.79c0,4.4,0,8.52,0,12,0,7.06,0,11.79,0,11.79s.81-4.66,1.44-11.72c.16-1.76.32-3.68.45-5.7s.25-4.16.32-6.38.16-4.5.15-6.83,0-4.69-.09-7.07-.23-4.73-.36-7-.28-4.58-.41-6.78c-.26-4.4-.51-8.51-.71-12-.41-7-.75-11.76-.75-11.76s-.53,4.7-.74,11.78C71.7,100.41,71.66,104.54,71.73,109Z"/><path class="cls-2" d="M77.41,107.34c.06,1.1.08,2.24.15,3.39s.12,2.32.18,3.49.13,2.34.2,3.5.14,2.28.2,3.38.14,2.15.2,3.16.12,2,.19,2.83c.1,1.76.23,3.23.29,4.26S79,133,79,133s.1-.58.25-1.61.31-2.49.44-4.26.2-3.84.21-6c0-1.11,0-2.25,0-3.41s-.09-2.34-.14-3.52c-.15-2.35-.31-4.71-.56-6.9s-.5-4.25-.78-6c-.53-3.5-1.11-5.81-1.11-5.81s-.07,2.38,0,5.9C77.26,103.09,77.33,105.14,77.41,107.34Z"/><path class="cls-2" d="M123,145.24c.14,2.43.47,4.77.75,7s.66,4.3,1,6.22.79,3.66,1.18,5.2c.2.77.38,1.49.56,2.15s.43,1.25.61,1.79c.77,2.14,1.23,3.35,1.23,3.35s-.23-1.29-.67-3.5c-.1-.56-.25-1.16-.34-1.83s-.19-1.4-.29-2.18c-.2-1.56-.47-3.29-.61-5.22s-.39-4-.49-6.2-.28-4.52-.35-6.93c0-1.2-.09-2.43-.13-3.67s-.06-2.49-.08-3.76-.06-2.54-.09-3.82,0-2.56,0-3.85c-.06-2.57,0-5.15,0-7.68s0-5,0-7.45c0-4.83.09-9.34.13-13.21.09-7.75.06-12.94.06-12.94s-.24,1.28-.57,3.52-.78,5.46-1.17,9.32-.78,8.38-1,13.24c-.08,2.42-.26,4.93-.28,7.48s-.1,5.15-.08,7.74.08,5.19.2,7.74S122.77,142.81,123,145.24Z"/><g class="cls-3"><path class="cls-2" d="M153.85,152.25h0v69.21h320V140.83h-6.33v2.46H462v-2.46h-8v2.46h-5.45v-2.46h-6.33v11.42h-7.44v-8.33h.81a2.9,2.9,0,0,0,2.59-1.45,2.33,2.33,0,0,0-.43-2.8l-16.81-17.22-1.84-6.62-.72-2.57-.72,2.57-1.84,6.62L399,139.67a2.33,2.33,0,0,0-.43,2.8,2.9,2.9,0,0,0,2.59,1.45H402v8.33h-6.51V103.42H387v3.63h-9v-3.63H367.15v3.63h-9v-3.63h-8.4v16.87H337.9V81.48h1.66A3.8,3.8,0,0,0,343,79.57a3.07,3.07,0,0,0-.56-3.69l-25-25.59-2.23-8.53V26.88a1.51,1.51,0,0,0,.82-1.3,1.81,1.81,0,0,0-3.59,0,1.44,1.44,0,0,0,.47,1c-1.38-.24-3.45.05-6.45,1.91-6.63,4.11-19.39,0-19.39,0A16.15,16.15,0,0,0,286.8,36c.9,3.75-.49,4.89-.49,4.89,11.94,3.33,21.43-.71,22.08-2.41.41-1.07,3-.41,4.83.23v3L311,50.29,286,75.88a3.06,3.06,0,0,0-.56,3.69,3.79,3.79,0,0,0,3.38,1.91h1.67v38.81H278.62V103.42h-8.41v3.63h-9v-3.63H250.33v3.63h-9v-3.63H233v48.83h-7.32v-8.33h.82a2.89,2.89,0,0,0,2.58-1.45,2.33,2.33,0,0,0-.43-2.8l-16.8-17.22L210,115.83l-.72-2.57-.71,2.57-1.85,6.62-16.81,17.22a2.33,2.33,0,0,0-.42,2.8,2.89,2.89,0,0,0,2.58,1.45h.81v8.33h-7.39V140.8h-6.33v2.46h-5.45V140.8h-8v2.46h-5.45V140.8h-6.34v11.45ZM212,144v9.14h-5.46V144a2.76,2.76,0,0,1,5.46,0Zm-42.29,14.7a2.57,2.57,0,0,1,2.73,2.36v9.14h-5.46v-9.14A2.57,2.57,0,0,1,169.66,158.69Zm88.86-25.12h-5.46v-9.13a2.76,2.76,0,0,1,5.46,0Zm58.41-35.33h-5.46V89.1a2.76,2.76,0,0,1,5.46,0Zm52.95,26.2a2.76,2.76,0,0,1,5.46,0v9.13h-5.46ZM421.08,144v9.14h-5.46V144a2.76,2.76,0,0,1,5.46,0ZM458,158.69a2.57,2.57,0,0,1,2.73,2.36v9.14h-5.45v-9.14A2.56,2.56,0,0,1,458,158.69Z"/></g></svg>